<mxfile host="Electron" modified="2023-11-22T15:15:51.965Z" agent="Mozilla/5.0 (Windows NT 10.0; Win64; x64) AppleWebKit/537.36 (KHTML, like Gecko) draw.io/22.1.2 Chrome/114.0.5735.289 Electron/25.9.4 Safari/537.36" etag="DMo3XW6xJdU-onJAVL7y" version="22.1.2" type="device">
  <diagram name="Страница — 1" id="eoBiVWMakBsomrrvYX7j">
    <mxGraphModel dx="1691" dy="1685" grid="1" gridSize="10" guides="1" tooltips="1" connect="1" arrows="1" fold="1" page="1" pageScale="1" pageWidth="827" pageHeight="1169" math="0" shadow="0">
      <root>
        <mxCell id="0" />
        <mxCell id="1" parent="0" />
        <mxCell id="8Us5kt9_01bGsC8FEpMt-2" value="&lt;b&gt;base.html&lt;/b&gt;" style="rounded=1;whiteSpace=wrap;html=1;rotation=0;fontSize=16;direction=west;sketch=1;curveFitting=1;jiggle=2;" vertex="1" parent="1">
          <mxGeometry x="319" y="90" width="200" height="60" as="geometry" />
        </mxCell>
        <mxCell id="8Us5kt9_01bGsC8FEpMt-5" value="" style="endArrow=classic;html=1;rounded=1;entryX=0.5;entryY=0;entryDx=0;entryDy=0;exitX=1;exitY=0;exitDx=0;exitDy=0;sketch=1;curveFitting=1;jiggle=2;" edge="1" parent="1" source="8Us5kt9_01bGsC8FEpMt-2" target="8Us5kt9_01bGsC8FEpMt-6">
          <mxGeometry width="50" height="50" relative="1" as="geometry">
            <mxPoint x="469" y="90" as="sourcePoint" />
            <mxPoint x="229" y="200" as="targetPoint" />
            <Array as="points" />
          </mxGeometry>
        </mxCell>
        <mxCell id="8Us5kt9_01bGsC8FEpMt-6" value="&lt;b&gt;Community&lt;/b&gt;" style="rounded=1;whiteSpace=wrap;html=1;rotation=0;fontSize=16;sketch=1;curveFitting=1;jiggle=2;" vertex="1" parent="1">
          <mxGeometry x="40" y="190.96" width="200" height="60" as="geometry" />
        </mxCell>
        <mxCell id="8Us5kt9_01bGsC8FEpMt-7" value="&lt;b&gt;Explore&lt;/b&gt;" style="rounded=1;whiteSpace=wrap;html=1;rotation=0;fontSize=16;sketch=1;curveFitting=1;jiggle=2;" vertex="1" parent="1">
          <mxGeometry x="440" y="470" width="200" height="60" as="geometry" />
        </mxCell>
        <mxCell id="8Us5kt9_01bGsC8FEpMt-8" value="&lt;b&gt;Notification&lt;/b&gt;" style="rounded=1;whiteSpace=wrap;html=1;rotation=0;fontSize=16;sketch=1;curveFitting=1;jiggle=2;" vertex="1" parent="1">
          <mxGeometry x="189" y="470" width="200" height="60" as="geometry" />
        </mxCell>
        <mxCell id="8Us5kt9_01bGsC8FEpMt-9" value="&lt;b&gt;Settings&lt;br&gt;&lt;/b&gt;" style="rounded=1;whiteSpace=wrap;html=1;rotation=0;fontSize=16;sketch=1;curveFitting=1;jiggle=2;" vertex="1" parent="1">
          <mxGeometry x="590" y="190.96" width="200" height="60" as="geometry" />
        </mxCell>
        <mxCell id="8Us5kt9_01bGsC8FEpMt-11" value="" style="endArrow=classic;html=1;rounded=1;entryX=0.5;entryY=0;entryDx=0;entryDy=0;exitX=0.5;exitY=0;exitDx=0;exitDy=0;sketch=1;curveFitting=1;jiggle=2;" edge="1" parent="1" source="8Us5kt9_01bGsC8FEpMt-2" target="8Us5kt9_01bGsC8FEpMt-7">
          <mxGeometry width="50" height="50" relative="1" as="geometry">
            <mxPoint x="419" y="150" as="sourcePoint" />
            <mxPoint x="429" y="160" as="targetPoint" />
          </mxGeometry>
        </mxCell>
        <mxCell id="8Us5kt9_01bGsC8FEpMt-12" value="" style="endArrow=classic;html=1;rounded=1;entryX=0.5;entryY=0;entryDx=0;entryDy=0;exitX=0;exitY=0;exitDx=0;exitDy=0;sketch=1;curveFitting=1;jiggle=2;" edge="1" parent="1" source="8Us5kt9_01bGsC8FEpMt-2" target="8Us5kt9_01bGsC8FEpMt-9">
          <mxGeometry width="50" height="50" relative="1" as="geometry">
            <mxPoint x="359" y="260" as="sourcePoint" />
            <mxPoint x="409" y="210" as="targetPoint" />
          </mxGeometry>
        </mxCell>
        <mxCell id="8Us5kt9_01bGsC8FEpMt-13" value="&lt;b&gt;Главная страница&lt;br&gt;Posts&lt;br&gt;&lt;/b&gt;" style="rounded=1;whiteSpace=wrap;html=1;rotation=0;fontSize=16;sketch=1;curveFitting=1;jiggle=2;" vertex="1" parent="1">
          <mxGeometry x="318.26" y="590" width="200" height="60" as="geometry" />
        </mxCell>
        <mxCell id="8Us5kt9_01bGsC8FEpMt-14" value="" style="endArrow=classic;html=1;rounded=1;entryX=0.5;entryY=0;entryDx=0;entryDy=0;sketch=1;curveFitting=1;jiggle=2;exitX=0.5;exitY=0;exitDx=0;exitDy=0;" edge="1" parent="1" source="8Us5kt9_01bGsC8FEpMt-17" target="8Us5kt9_01bGsC8FEpMt-13">
          <mxGeometry width="50" height="50" relative="1" as="geometry">
            <mxPoint x="419" y="220" as="sourcePoint" />
            <mxPoint x="419" y="230" as="targetPoint" />
            <Array as="points" />
          </mxGeometry>
        </mxCell>
        <mxCell id="8Us5kt9_01bGsC8FEpMt-15" value="&lt;div style=&quot;font-size: 17px;&quot;&gt;&lt;pre style=&quot;font-family: &amp;quot;JetBrains Mono&amp;quot;, monospace; font-size: 17px;&quot;&gt;&lt;span style=&quot;white-space: normal; font-size: 17px;&quot;&gt;extends&lt;/span&gt;&lt;br style=&quot;font-size: 17px;&quot;&gt;&lt;/pre&gt;&lt;/div&gt;" style="text;html=1;strokeColor=none;fillColor=none;align=center;verticalAlign=middle;whiteSpace=wrap;rounded=0;fontSize=17;fontFamily=Architects Daughter;rotation=-15;labelBackgroundColor=none;fontColor=#000000;fontStyle=1" vertex="1" parent="1">
          <mxGeometry x="208" y="140" width="71" height="20.67" as="geometry" />
        </mxCell>
        <mxCell id="8Us5kt9_01bGsC8FEpMt-16" value="&lt;div style=&quot;font-size: 17px;&quot;&gt;&lt;pre style=&quot;font-family: &amp;quot;JetBrains Mono&amp;quot;, monospace; font-size: 17px;&quot;&gt;&lt;span style=&quot;white-space: normal; font-size: 17px;&quot;&gt;extends&lt;/span&gt;&lt;br style=&quot;font-size: 17px;&quot;&gt;&lt;/pre&gt;&lt;/div&gt;" style="text;html=1;strokeColor=none;fillColor=none;align=center;verticalAlign=middle;whiteSpace=wrap;rounded=0;fontSize=17;fontFamily=Architects Daughter;rotation=-45;labelBackgroundColor=none;fontColor=#000000;fontStyle=1" vertex="1" parent="1">
          <mxGeometry x="260" y="190.96" width="82.6" height="16.74" as="geometry" />
        </mxCell>
        <mxCell id="8Us5kt9_01bGsC8FEpMt-21" value="&lt;div style=&quot;font-size: 17px;&quot;&gt;&lt;pre style=&quot;font-family: &amp;quot;JetBrains Mono&amp;quot;, monospace; font-size: 17px;&quot;&gt;&lt;span style=&quot;white-space: normal; font-size: 17px;&quot;&gt;extends&lt;/span&gt;&lt;br style=&quot;font-size: 17px;&quot;&gt;&lt;/pre&gt;&lt;/div&gt;" style="text;html=1;strokeColor=none;fillColor=none;align=center;verticalAlign=middle;whiteSpace=wrap;rounded=0;fontSize=17;fontFamily=Architects Daughter;rotation=65;labelBackgroundColor=none;fontColor=#000000;fontStyle=1" vertex="1" parent="1">
          <mxGeometry x="440.00000000000006" y="250.96" width="81" height="21.34" as="geometry" />
        </mxCell>
        <mxCell id="8Us5kt9_01bGsC8FEpMt-27" value="&lt;b&gt;Messages&lt;/b&gt;" style="rounded=1;whiteSpace=wrap;html=1;rotation=0;fontSize=16;sketch=1;curveFitting=1;jiggle=2;" vertex="1" parent="1">
          <mxGeometry x="91.84" y="330" width="200" height="60" as="geometry" />
        </mxCell>
        <mxCell id="8Us5kt9_01bGsC8FEpMt-28" value="&lt;b&gt;Profile&lt;/b&gt;" style="rounded=1;whiteSpace=wrap;html=1;rotation=0;fontSize=16;sketch=1;curveFitting=1;jiggle=2;" vertex="1" parent="1">
          <mxGeometry x="540" y="320" width="200" height="60" as="geometry" />
        </mxCell>
        <mxCell id="8Us5kt9_01bGsC8FEpMt-29" value="" style="endArrow=classic;html=1;rounded=0;sketch=1;hachureGap=4;jiggle=2;curveFitting=1;fontFamily=Architects Daughter;fontSource=https%3A%2F%2Ffonts.googleapis.com%2Fcss%3Ffamily%3DArchitects%2BDaughter;fontSize=16;exitX=0.75;exitY=0;exitDx=0;exitDy=0;entryX=0.5;entryY=0;entryDx=0;entryDy=0;" edge="1" parent="1">
          <mxGeometry width="50" height="50" relative="1" as="geometry">
            <mxPoint x="366.16" y="150" as="sourcePoint" />
            <mxPoint x="189.00000000000014" y="330" as="targetPoint" />
          </mxGeometry>
        </mxCell>
        <mxCell id="8Us5kt9_01bGsC8FEpMt-31" value="&lt;div style=&quot;font-size: 17px;&quot;&gt;&lt;pre style=&quot;font-family: &amp;quot;JetBrains Mono&amp;quot;, monospace; font-size: 17px;&quot;&gt;&lt;span style=&quot;white-space: normal; font-size: 17px;&quot;&gt;extends&lt;/span&gt;&lt;br style=&quot;font-size: 17px;&quot;&gt;&lt;/pre&gt;&lt;/div&gt;" style="text;html=1;strokeColor=none;fillColor=none;align=center;verticalAlign=middle;whiteSpace=wrap;rounded=1;fontSize=17;fontFamily=Architects Daughter;rotation=15;labelBackgroundColor=none;fontColor=#000000;fontStyle=1" vertex="1" parent="1">
          <mxGeometry x="551.84" y="140" width="80" height="20" as="geometry" />
        </mxCell>
        <mxCell id="8Us5kt9_01bGsC8FEpMt-36" value="" style="endArrow=classic;html=1;rounded=1;exitX=0.5;exitY=0;exitDx=0;exitDy=0;sketch=1;curveFitting=1;jiggle=2;entryX=0.5;entryY=0;entryDx=0;entryDy=0;" edge="1" parent="1" source="8Us5kt9_01bGsC8FEpMt-2" target="8Us5kt9_01bGsC8FEpMt-8">
          <mxGeometry width="50" height="50" relative="1" as="geometry">
            <mxPoint x="369" y="150" as="sourcePoint" />
            <mxPoint x="390" y="230" as="targetPoint" />
            <Array as="points" />
          </mxGeometry>
        </mxCell>
        <mxCell id="8Us5kt9_01bGsC8FEpMt-35" value="&lt;div style=&quot;font-size: 17px;&quot;&gt;&lt;pre style=&quot;font-family: &amp;quot;JetBrains Mono&amp;quot;, monospace; font-size: 17px;&quot;&gt;&lt;span style=&quot;white-space: normal; font-size: 17px;&quot;&gt;extends&lt;/span&gt;&lt;br style=&quot;font-size: 17px;&quot;&gt;&lt;/pre&gt;&lt;/div&gt;" style="text;html=1;strokeColor=none;fillColor=none;align=center;verticalAlign=middle;whiteSpace=wrap;rounded=0;fontSize=17;fontFamily=Architects Daughter;rotation=-60;labelBackgroundColor=none;fontColor=#000000;fontStyle=1" vertex="1" parent="1">
          <mxGeometry x="318.26000000000005" y="250.96000000000004" width="81" height="21.34" as="geometry" />
        </mxCell>
        <mxCell id="8Us5kt9_01bGsC8FEpMt-37" value="" style="endArrow=classic;html=1;rounded=0;sketch=1;hachureGap=4;jiggle=2;curveFitting=1;fontFamily=Architects Daughter;fontSource=https%3A%2F%2Ffonts.googleapis.com%2Fcss%3Ffamily%3DArchitects%2BDaughter;fontSize=16;exitX=0.25;exitY=0;exitDx=0;exitDy=0;entryX=0.5;entryY=0;entryDx=0;entryDy=0;" edge="1" parent="1" source="8Us5kt9_01bGsC8FEpMt-2" target="8Us5kt9_01bGsC8FEpMt-28">
          <mxGeometry width="50" height="50" relative="1" as="geometry">
            <mxPoint x="460" y="370" as="sourcePoint" />
            <mxPoint x="450" y="300" as="targetPoint" />
          </mxGeometry>
        </mxCell>
        <mxCell id="8Us5kt9_01bGsC8FEpMt-38" value="&lt;div style=&quot;font-size: 17px;&quot;&gt;&lt;pre style=&quot;font-family: &amp;quot;JetBrains Mono&amp;quot;, monospace; font-size: 17px;&quot;&gt;&lt;span style=&quot;white-space: normal; font-size: 17px;&quot;&gt;extends&lt;/span&gt;&lt;br style=&quot;font-size: 17px;&quot;&gt;&lt;/pre&gt;&lt;/div&gt;" style="text;html=1;strokeColor=none;fillColor=none;align=center;verticalAlign=middle;whiteSpace=wrap;rounded=0;fontSize=17;fontFamily=Architects Daughter;rotation=45;labelBackgroundColor=none;fontColor=#000000;fontStyle=1" vertex="1" parent="1">
          <mxGeometry x="499.50000000000006" y="190.95999999999998" width="81" height="21.34" as="geometry" />
        </mxCell>
        <mxCell id="8Us5kt9_01bGsC8FEpMt-41" value="" style="endArrow=classic;html=1;rounded=1;entryX=0.5;entryY=0;entryDx=0;entryDy=0;sketch=1;curveFitting=1;jiggle=2;exitX=0.5;exitY=0;exitDx=0;exitDy=0;" edge="1" parent="1" source="8Us5kt9_01bGsC8FEpMt-2" target="8Us5kt9_01bGsC8FEpMt-17">
          <mxGeometry width="50" height="50" relative="1" as="geometry">
            <mxPoint x="419" y="150" as="sourcePoint" />
            <mxPoint x="418" y="590" as="targetPoint" />
            <Array as="points" />
          </mxGeometry>
        </mxCell>
        <mxCell id="8Us5kt9_01bGsC8FEpMt-17" value="&lt;div style=&quot;font-size: 17px;&quot;&gt;&lt;pre style=&quot;font-family: &amp;quot;JetBrains Mono&amp;quot;, monospace; font-size: 17px;&quot;&gt;&lt;span style=&quot;white-space: normal; font-size: 17px;&quot;&gt;extends&lt;/span&gt;&lt;br style=&quot;font-size: 17px;&quot;&gt;&lt;/pre&gt;&lt;/div&gt;" style="text;html=1;strokeColor=none;fillColor=none;align=center;verticalAlign=middle;whiteSpace=wrap;rounded=0;fontSize=17;fontFamily=Architects Daughter;rotation=0;labelBackgroundColor=none;fontColor=#000000;fontStyle=1" vertex="1" parent="1">
          <mxGeometry x="371" y="340" width="92.84" height="40" as="geometry" />
        </mxCell>
        <mxCell id="8Us5kt9_01bGsC8FEpMt-46" value="" style="endArrow=classic;html=1;rounded=0;sketch=1;hachureGap=4;jiggle=2;curveFitting=1;fontFamily=Architects Daughter;fontSource=https%3A%2F%2Ffonts.googleapis.com%2Fcss%3Ffamily%3DArchitects%2BDaughter;fontSize=16;exitX=0;exitY=1;exitDx=0;exitDy=0;entryX=0.5;entryY=0;entryDx=0;entryDy=0;" edge="1" parent="1" source="8Us5kt9_01bGsC8FEpMt-2" target="8Us5kt9_01bGsC8FEpMt-47">
          <mxGeometry width="50" height="50" relative="1" as="geometry">
            <mxPoint x="400" y="250" as="sourcePoint" />
            <mxPoint x="630" y="30" as="targetPoint" />
            <Array as="points" />
          </mxGeometry>
        </mxCell>
        <mxCell id="8Us5kt9_01bGsC8FEpMt-47" value="&lt;b&gt;SIng up&lt;/b&gt;" style="rounded=1;whiteSpace=wrap;html=1;rotation=0;fontSize=16;direction=west;sketch=1;curveFitting=1;jiggle=2;" vertex="1" parent="1">
          <mxGeometry x="518.26" y="-60" width="200" height="60" as="geometry" />
        </mxCell>
        <mxCell id="8Us5kt9_01bGsC8FEpMt-63" style="edgeStyle=orthogonalEdgeStyle;rounded=0;sketch=1;hachureGap=4;jiggle=2;curveFitting=1;orthogonalLoop=1;jettySize=auto;html=1;fontFamily=Architects Daughter;fontSource=https%3A%2F%2Ffonts.googleapis.com%2Fcss%3Ffamily%3DArchitects%2BDaughter;fontSize=16;entryX=0.5;entryY=0;entryDx=0;entryDy=0;" edge="1" parent="1" source="8Us5kt9_01bGsC8FEpMt-48" target="8Us5kt9_01bGsC8FEpMt-64">
          <mxGeometry relative="1" as="geometry">
            <mxPoint x="218.26" y="-130" as="targetPoint" />
          </mxGeometry>
        </mxCell>
        <mxCell id="8Us5kt9_01bGsC8FEpMt-48" value="&lt;b&gt;Sing in&lt;/b&gt;" style="rounded=1;whiteSpace=wrap;html=1;rotation=0;fontSize=16;direction=west;sketch=1;curveFitting=1;jiggle=2;" vertex="1" parent="1">
          <mxGeometry x="118.25999999999999" y="-60" width="200" height="60" as="geometry" />
        </mxCell>
        <mxCell id="8Us5kt9_01bGsC8FEpMt-49" value="" style="endArrow=classic;html=1;rounded=0;sketch=1;hachureGap=4;jiggle=2;curveFitting=1;fontFamily=Architects Daughter;fontSource=https%3A%2F%2Ffonts.googleapis.com%2Fcss%3Ffamily%3DArchitects%2BDaughter;fontSize=16;exitX=1;exitY=1;exitDx=0;exitDy=0;entryX=0.5;entryY=0;entryDx=0;entryDy=0;" edge="1" parent="1" source="8Us5kt9_01bGsC8FEpMt-2" target="8Us5kt9_01bGsC8FEpMt-48">
          <mxGeometry width="50" height="50" relative="1" as="geometry">
            <mxPoint x="529" y="100" as="sourcePoint" />
            <mxPoint x="628" y="10" as="targetPoint" />
            <Array as="points" />
          </mxGeometry>
        </mxCell>
        <mxCell id="8Us5kt9_01bGsC8FEpMt-50" value="&lt;div style=&quot;font-size: 17px;&quot;&gt;&lt;pre style=&quot;font-family: &amp;quot;JetBrains Mono&amp;quot;, monospace; font-size: 17px;&quot;&gt;&lt;span style=&quot;white-space: normal; font-size: 17px;&quot;&gt;extends&lt;/span&gt;&lt;br style=&quot;font-size: 17px;&quot;&gt;&lt;/pre&gt;&lt;/div&gt;" style="text;html=1;strokeColor=none;fillColor=none;align=center;verticalAlign=middle;whiteSpace=wrap;rounded=1;fontSize=17;fontFamily=Architects Daughter;rotation=-45;labelBackgroundColor=none;fontColor=#000000;fontStyle=1" vertex="1" parent="1">
          <mxGeometry x="510" y="30" width="80" height="20" as="geometry" />
        </mxCell>
        <mxCell id="8Us5kt9_01bGsC8FEpMt-51" value="&lt;div style=&quot;font-size: 17px;&quot;&gt;&lt;pre style=&quot;font-family: &amp;quot;JetBrains Mono&amp;quot;, monospace; font-size: 17px;&quot;&gt;&lt;span style=&quot;white-space: normal; font-size: 17px;&quot;&gt;extends&lt;/span&gt;&lt;br style=&quot;font-size: 17px;&quot;&gt;&lt;/pre&gt;&lt;/div&gt;" style="text;html=1;strokeColor=none;fillColor=none;align=center;verticalAlign=middle;whiteSpace=wrap;rounded=0;fontSize=17;fontFamily=Architects Daughter;rotation=45;labelBackgroundColor=none;fontColor=#000000;fontStyle=1" vertex="1" parent="1">
          <mxGeometry x="260" y="30" width="71" height="20.67" as="geometry" />
        </mxCell>
        <mxCell id="8Us5kt9_01bGsC8FEpMt-52" value="&lt;b&gt;Article detail&lt;/b&gt;" style="rounded=1;whiteSpace=wrap;html=1;rotation=0;fontSize=16;sketch=1;curveFitting=1;jiggle=2;" vertex="1" parent="1">
          <mxGeometry x="640" y="610" width="200" height="60" as="geometry" />
        </mxCell>
        <mxCell id="8Us5kt9_01bGsC8FEpMt-53" value="" style="endArrow=classic;html=1;rounded=0;sketch=1;hachureGap=4;jiggle=2;curveFitting=1;fontFamily=Architects Daughter;fontSource=https%3A%2F%2Ffonts.googleapis.com%2Fcss%3Ffamily%3DArchitects%2BDaughter;fontSize=16;entryX=0.5;entryY=0;entryDx=0;entryDy=0;exitX=0.5;exitY=1;exitDx=0;exitDy=0;" edge="1" parent="1" source="8Us5kt9_01bGsC8FEpMt-7" target="8Us5kt9_01bGsC8FEpMt-52">
          <mxGeometry width="50" height="50" relative="1" as="geometry">
            <mxPoint x="400" y="550" as="sourcePoint" />
            <mxPoint x="450" y="500" as="targetPoint" />
          </mxGeometry>
        </mxCell>
        <mxCell id="8Us5kt9_01bGsC8FEpMt-54" value="&lt;b&gt;Chat&lt;/b&gt;" style="rounded=1;whiteSpace=wrap;html=1;rotation=0;fontSize=16;sketch=1;curveFitting=1;jiggle=2;" vertex="1" parent="1">
          <mxGeometry x="-108.16" y="490" width="200" height="60" as="geometry" />
        </mxCell>
        <mxCell id="8Us5kt9_01bGsC8FEpMt-55" value="" style="endArrow=classic;html=1;rounded=0;sketch=1;hachureGap=4;jiggle=2;curveFitting=1;fontFamily=Architects Daughter;fontSource=https%3A%2F%2Ffonts.googleapis.com%2Fcss%3Ffamily%3DArchitects%2BDaughter;fontSize=16;exitX=0.5;exitY=0;exitDx=0;exitDy=0;entryX=0.5;entryY=1;entryDx=0;entryDy=0;" edge="1" parent="1" source="8Us5kt9_01bGsC8FEpMt-54" target="8Us5kt9_01bGsC8FEpMt-27">
          <mxGeometry width="50" height="50" relative="1" as="geometry">
            <mxPoint y="550" as="sourcePoint" />
            <mxPoint x="70" y="410" as="targetPoint" />
          </mxGeometry>
        </mxCell>
        <mxCell id="8Us5kt9_01bGsC8FEpMt-56" value="&lt;b&gt;Post&lt;br&gt;&lt;/b&gt;" style="rounded=1;whiteSpace=wrap;html=1;rotation=0;fontSize=16;sketch=1;curveFitting=1;jiggle=2;" vertex="1" parent="1">
          <mxGeometry x="160" y="750" width="200" height="60" as="geometry" />
        </mxCell>
        <mxCell id="8Us5kt9_01bGsC8FEpMt-57" value="" style="endArrow=classic;html=1;rounded=0;sketch=1;hachureGap=4;jiggle=2;curveFitting=1;fontFamily=Architects Daughter;fontSource=https%3A%2F%2Ffonts.googleapis.com%2Fcss%3Ffamily%3DArchitects%2BDaughter;fontSize=16;exitX=0.5;exitY=0;exitDx=0;exitDy=0;entryX=0.5;entryY=1;entryDx=0;entryDy=0;" edge="1" parent="1" source="8Us5kt9_01bGsC8FEpMt-56" target="8Us5kt9_01bGsC8FEpMt-13">
          <mxGeometry width="50" height="50" relative="1" as="geometry">
            <mxPoint x="300" y="720" as="sourcePoint" />
            <mxPoint x="350" y="670" as="targetPoint" />
          </mxGeometry>
        </mxCell>
        <mxCell id="8Us5kt9_01bGsC8FEpMt-58" value="&lt;div style=&quot;font-size: 17px;&quot;&gt;&lt;pre style=&quot;font-family: &amp;quot;JetBrains Mono&amp;quot;, monospace; font-size: 17px;&quot;&gt;&lt;div style=&quot;font-size: 17px;&quot;&gt;&lt;pre style=&quot;font-family: &amp;quot;JetBrains Mono&amp;quot;, monospace; font-size: 17px;&quot;&gt;include&lt;/pre&gt;&lt;/div&gt;&lt;/pre&gt;&lt;/div&gt;" style="text;html=1;strokeColor=none;fillColor=none;align=center;verticalAlign=middle;whiteSpace=wrap;rounded=0;fontSize=17;fontFamily=Architects Daughter;rotation=-30;labelBackgroundColor=none;fontColor=#000000;fontStyle=1" vertex="1" parent="1">
          <mxGeometry x="279" y="690" width="82.6" height="16.74" as="geometry" />
        </mxCell>
        <mxCell id="8Us5kt9_01bGsC8FEpMt-59" value="&lt;div style=&quot;font-size: 17px;&quot;&gt;&lt;pre style=&quot;font-family: &amp;quot;JetBrains Mono&amp;quot;, monospace; font-size: 17px;&quot;&gt;&lt;div style=&quot;font-size: 17px;&quot;&gt;&lt;pre style=&quot;font-family: &amp;quot;JetBrains Mono&amp;quot;, monospace; font-size: 17px;&quot;&gt;include&lt;/pre&gt;&lt;/div&gt;&lt;/pre&gt;&lt;/div&gt;" style="text;html=1;strokeColor=none;fillColor=none;align=center;verticalAlign=middle;whiteSpace=wrap;rounded=0;fontSize=17;fontFamily=Architects Daughter;rotation=-30;labelBackgroundColor=none;fontColor=#000000;fontStyle=1" vertex="1" parent="1">
          <mxGeometry x="35.66" y="430" width="82.6" height="16.74" as="geometry" />
        </mxCell>
        <mxCell id="8Us5kt9_01bGsC8FEpMt-60" value="&lt;b&gt;Post&lt;br&gt;&lt;/b&gt;" style="rounded=1;whiteSpace=wrap;html=1;rotation=0;fontSize=16;sketch=1;curveFitting=1;jiggle=2;" vertex="1" parent="1">
          <mxGeometry x="710" y="470" width="200" height="60" as="geometry" />
        </mxCell>
        <mxCell id="8Us5kt9_01bGsC8FEpMt-61" value="&lt;div style=&quot;font-size: 17px;&quot;&gt;&lt;pre style=&quot;font-family: &amp;quot;JetBrains Mono&amp;quot;, monospace; font-size: 17px;&quot;&gt;&lt;div style=&quot;font-size: 17px;&quot;&gt;&lt;pre style=&quot;font-family: &amp;quot;JetBrains Mono&amp;quot;, monospace; font-size: 17px;&quot;&gt;include&lt;/pre&gt;&lt;/div&gt;&lt;/pre&gt;&lt;/div&gt;" style="text;html=1;strokeColor=none;fillColor=none;align=center;verticalAlign=middle;whiteSpace=wrap;rounded=0;fontSize=17;fontFamily=Architects Daughter;rotation=30;labelBackgroundColor=none;fontColor=#000000;fontStyle=1" vertex="1" parent="1">
          <mxGeometry x="698.7" y="413.26" width="82.6" height="16.74" as="geometry" />
        </mxCell>
        <mxCell id="8Us5kt9_01bGsC8FEpMt-62" value="" style="endArrow=classic;html=1;rounded=0;sketch=1;hachureGap=4;jiggle=2;curveFitting=1;fontFamily=Architects Daughter;fontSource=https%3A%2F%2Ffonts.googleapis.com%2Fcss%3Ffamily%3DArchitects%2BDaughter;fontSize=16;entryX=0.5;entryY=1;entryDx=0;entryDy=0;exitX=0.465;exitY=-0.067;exitDx=0;exitDy=0;exitPerimeter=0;" edge="1" parent="1" source="8Us5kt9_01bGsC8FEpMt-60" target="8Us5kt9_01bGsC8FEpMt-28">
          <mxGeometry width="50" height="50" relative="1" as="geometry">
            <mxPoint x="740" y="460" as="sourcePoint" />
            <mxPoint x="790" y="410" as="targetPoint" />
          </mxGeometry>
        </mxCell>
        <mxCell id="8Us5kt9_01bGsC8FEpMt-64" value="&lt;b&gt;Password reset&lt;/b&gt;" style="rounded=1;whiteSpace=wrap;html=1;rotation=0;fontSize=16;direction=west;sketch=1;curveFitting=1;jiggle=2;" vertex="1" parent="1">
          <mxGeometry x="118.25999999999999" y="-210" width="200" height="60" as="geometry" />
        </mxCell>
      </root>
    </mxGraphModel>
  </diagram>
</mxfile>
